<?xml version="1.0" encoding="UTF-8"?>
<!-- Created with Inkscape (http://www.inkscape.org/) -->
<svg id="svg55732" width="369.87mm" height="104.84mm" version="1.1" viewBox="0 0 369.87 104.84" xmlns="http://www.w3.org/2000/svg">
 <g id="layer1" transform="translate(-27.437 -174.54)">
  <path id="path20426" d="m27.437 174.54v91.236c12.293 8.8704 27.399 13.891 42.572 13.587 21.92-.43899 42.363-11.094 60.32-23.673 17.957-12.579 34.448-27.372 53.637-37.977 28.318-15.651 61.319-21.395 93.67-20.867 41.618.67985 83.012 11.546 119.67 31.241v-53.547zm46.234 13.345c5.8301 0 11.185 2.0548 15.385 5.4746-.79491.34206-1.5808.70229-2.3601 1.0785-3.6504-2.6668-8.1504-4.2426-13.025-4.2426-12.213 0-22.089 9.8755-22.089 22.088 0 5.826 2.2517 11.117 5.9283 15.061-.15592.98118-.24694 1.9705-.27181 2.9636-4.8926-4.4639-7.9659-10.889-7.9659-18.024 0-13.461 10.937-24.399 24.398-24.399zm21.176 3.8773c.95337.008 1.7297.27289 2.2727.85164 1.3951 1.487-1.7105 5.8725-1.7105 5.8725 3.7342-6.4678.63209-6.862-4.7718-3.7228 4.5804 4.4369 7.4311 10.649 7.4311 17.52 0 13.461-10.937 24.398-24.398 24.398-1.9121 0-3.7701-.22813-5.5562-.64543l-1.6035-2.5456 1.1958.061c1.8975.52985 3.8958.8196 5.964.8196 12.213 0 22.088-9.8755 22.088-22.088 0-6.4378-2.7461-12.224-7.1303-16.258-11.21 7.5059-28.829 26.748-21.578 40.24-1.2244-.46627-2.3988-1.0632-3.4974-1.7772-1.1465-.74499-2.2346-1.6464-2.9084-2.836-.655-1.1566-.87622-2.5234-.79994-3.8504.36031-5.4976 5.3251-14.796 10.647-20.264 6.0989-6.2661 18.53-15.823 24.356-15.775zm-21.176 1.0268a20.04 19.495 0 0110.54 2.9197c-8.2506 4.4649-15.472 10.839-20.857 18.523-2.2203 3.168-4.1471 6.6086-5.2188 10.31a20.04 19.495 0 01-4.5036-12.259 20.04 19.495 0 0120.04-19.494zm13.142 4.7858a20.04 19.495 0 016.8972 14.709 20.04 19.495 0 01-20.04 19.495 20.04 19.495 0 01-5.8958-.88109c-.22241-.59055-.39283-1.2007-.50591-1.8216-.38576-2.1177-.1125-4.3179.5271-6.3732.6396-2.0553 1.6353-3.9819 2.7104-5.8467 4.2269-7.3313 9.7815-13.893 16.307-19.281zm-4.6617 44.029a.36182.36182 0 01.36174.36227v5.3371a.36182.36182 0 01-.36174.36174h-2.7404c0 .0792.0029.30758-.03357.50385-.04606.24812-.1393.46765-.27958.65889-.11795.16081-.36584.37618-.54002.47334-.24913.13904-.54607.22619-.8909.26096-.19873.0201-.5235.0188-.72295.006-.07673-.005-.15068-.0111-.2222-.019-.19849-.0222-.51768-.0877-.70488-.15709-.02889-.0106-.05757-.0225-.08631-.0341-.18444-.0765-.24733-.3047-.15348-.48112l.12248-.22995c.09387-.17656.28742-.25691.43926-.19637.18547.0738.45014.13573.5824.15451.19764.0283.52713.0346.71829-.0212.0098-.003.01878-.006.02842-.009.18822-.0615.41048-.27202.55449-.76637a.27524.27524 0 00-.36121-.14367h-.06615c-.19981 0-.52467.004-.72244-.0238-.2576-.0358-.48247-.11197-.67384-.22895-.17005-.1039-.39653-.34361-.49353-.51778-.11459-.20585-.18889-.448-.2222-.72658-.02381-.1983-.02434-.5244.0048-.72191.02461-.16632.06707-.32062.12711-.46353.07726-.18391.26694-.45135.41032-.59015.10536-.102.22241-.1927.35139-.27183.17015-.10443.47207-.22794.66455-.28112.18828-.0521.38645-.0874.59584-.10594.19899-.0185.52364-.0159.72348-.0159h.48884a.36182.36182 0 01.36174.36174v2.267a.36182.36182 0 00.36174.36174h1.1901a.36182.36182 0 00.36171-.36174v-4.3801a.36182.36182 0 01.36227-.36174zm12.67 0h.46456a.36182.36182 0 01.36174.36121v5.3376a.36182.36182 0 01-.36174.36174h-.46456a.36182.36182 0 01-.36227-.36174v-5.3376a.36182.36182 0 01.36227-.36121zm-41.852.003h.46508a.36188.36188 0 01.36174.36174v4.3801a.36182.36182 0 00.36174.36227h1.4697a.36182.36182 0 00.36174-.36227v-2.2665a.36182.36182 0 01.36174-.36174h.46456a.36182.36182 0 01.36174.36174v2.2665a.36182.36182 0 00.36174.36227h1.6288a.36182.36182 0 00.36174-.36227v-2.2665a.36182.36182 0 01.36227-.36174h.46456a.36182.36182 0 01.36174.36174v2.2665a.36182.36182 0 00.36174.36227h1.3896a.36182.36182 0 00.36171-.36227v-1.6449a.36182.36182 0 01.36174-.36121h.46508a.36182.36182 0 01.36124.36121v1.6449a.33975.33975 0 00.31626.36227c.19984 0 .48998.007.6387-.0326.19013-.0502.40915-.3167.45217-.51004.0026-.007.0026-.0151.0048-.0227.03964-.1955.03204-.52208.03204-.72192v-.71932a.36182.36182 0 01.36174-.36174h.46456a.36182.36182 0 01.36174.36174v1.1772c0 .1987.02275.42378.08887.49659.13359.14735.3401.2635.42272.28784.19108.0562.41669.045.4899.045a.36182.36182 0 00.36174-.36227v-2.2665a.36182.36182 0 01.36224-.36174h.46458a.36182.36182 0 01.36224.36174v2.2665a.36182.36182 0 00.36174.36227h.23304a294.25 294.25 0 00.72348-.003l2.4898-.006c.19987 0 .24101-.11459.14933-.29093-.06887-.13248-.12999-.29568-.18344-.48991-.05297-.19264-.10996-.51334-.17621-.70175-.01297-.0367-.0268-.0718-.04082-.10491-.07787-.18272-.29739-.41476-.46511-.46921-.18928-.0615-.43397-.0501-.52814-.0424-.19884.0164-.45109.0917-.5643.13798-.18484.0756-.38629.008-.46199-.17674l-.08525-.20772c-.07567-.18492.0056-.41392.19172-.48628.2976-.11576.62296-.1882.97668-.21704.1991-.0164.52446-.0172.72295.005.01164 0 .02275 0 .0341.004.19809.0246.51287.11753.68318.22116.04471.0272.08739.0562.12814.0878.1573.12224.35354.38754.43513.56949.03924.0874.07379.18217.10385.28475.05615.19161.10726.51223.14986.70744.08125.37235.17563.66583.28371.88006.08961.17761.20516.45852.20516.65833v.23308a.36182.36182 0 01-.36174.36173h-6.3019c-.19981 0-.52694.005-.72038-.0434-.21725-.054-.42595-.15841-.62579-.31264-.15806-.12202-.36227-.10668-.51729.0185-.19865.16057-.43976.26357-.72244.30953-.19701.0319-.52208.0279-.72192.0279h-14.572c-.19984 0-.52506.004-.72192-.0289-.19137-.032-.36314-.0911-.51573-.17724-.17351-.098-.40746-.33166-.50488-.50541-.08742-.15605-.1475-.33269-.17934-.5307-.03175-.19712-.02799-.48723-.01244-.64183.02037-.19868.0785-.46728.11628-.59997.05477-.19198.28644-.33898.48628-.33898h.32866c.19981 0 .3239.15748.29403.35502-.01614.109-.02873.21801-.03773.3276-.01561.19913-.02011.4926.02222.64442.05331.19077.24432.40135.3633.46146.17672.0891.51176.0775.71157.0775h1.8681a.36182.36182 0 00.36224-.36173v-4.3806a.36177.36177 0 01.36174-.36021zm6.2694.34935h.2708a.36182.36182 0 01.36171.36172v.28165a.36182.36182 0 01-.36171.36173h-.2708a.36182.36182 0 01-.36224-.36173v-.28165a.36182.36182 0 01.36224-.36172zm1.3555 0h.27078a.36182.36182 0 01.36224.36172v.28165a.36182.36182 0 01-.36224.36173h-.27078a.36182.36182 0 01-.36174-.36173v-.28165a.36182.36182 0 01.36174-.36172zm27.232 1.4087h.2713a.36182.36182 0 01.36121.36224v.28165a.36182.36182 0 01-.36121.36174h-.2713a.36182.36182 0 01-.36174-.36174v-.28165a.36182.36182 0 01.36174-.36224zm-36.733.0863c.1224-.003.24186.007.3271.0233.19566.0367.32927.14738.31419.18603-.07297.18603-.16629.31991-.56277.23307l-.27956.1116c-.11337.1134-.10486.31457.13592.62995.0793-.013.27154-.045.42995-.0662.19804-.0264.35965.008.35965.4253-.19878.0106-.40526.0353-.46199.0403-.19902.018-.38089.042-.40772.0455-.19822.0254-.40201.0551-.45527.062-.1982.0251-.35758.0316-.35758.007a.31409.31409 0 01.40151-.47697l-.21032-.17208c-.10443-.15664-.10134-.43429-.06355-.55708.05792-.18823.31541-.39627.48781-.44802.09536-.0288.22024-.041.34264-.0439zm41.265.19637h.0403c.19878.006.46471.11507.59378.18656.17473.0968.23754.33253.14883.5116l-.26977.54517-.3111-.15139c-.16568-.0701-.42926-.0607-.55136-.0124-.18553.0734-.45728.25593-.61135.38293-.0082.007-.0164.0138-.02434.0206-.15243.12888-.30456.30925-.47956.71726 0 .1438.1206.23223.12351.23514.1416.14075.27919.23815.28474.24185.16626.11086.43802.28713.59997.4041.03381.0243.0685.0498.10282.0755.15986.11991.41092.3257.54986.46921.16608.17156.28422.33742.35552.49713.08083.18113.08715.51474.03823.70797-.05032.19883-.14528.37036-.28575.51419-.1392.14248-.42513.30581-.61185.37618-.29192.11004-.6477.17722-1.0671.20104-.19947.0127-.52366.01-.72348.01h-1.1581c-.19979 0-.52612.006-.72088-.0372-.05646-.0124-.1116-.0277-.16484-.0465-.18809-.0657-.46114-.25082-.59687-.39687-.03313-.0357-.06451-.0731-.09456-.11213-.12163-.15812-.26297-.45382-.31472-.64649-.01905-.0708-.03461-.1438-.04599-.2186-.03069-.19727-.02826-.52273-.01296-.72191.02143-.27768.06747-.5543.13848-.83042.04982-.19347.26427-.34727.46405-.34727h.33745c.19981 0 .32152.12076.28631.27337-.04482.1946-.07734.51813-.08528.71776 0 .004.000106.007 0 .0109-.0077.19963-.0077.43868.0066.53123.03043.19653.14893.4051.20309.47646.12023.15846.31361.2821.3824.31366.18018.0824.51226.0775.7121.0775h.65627c.19984 0 .46477 0 .59172-.005.19955-.01.40182-.0393.45268-.0486.19545-.0347.33854-.12205.50541-.42476 0-.17418-.13973-.32981-.17984-.36743-.14552-.13647-.42844-.30017-.59584-.40929-.05215-.0339-.10586-.0689-.16071-.10541-.1664-.11064-.43601-.29046-.59222-.41497-.02064-.0164-.04088-.0332-.05993-.0491-.15272-.12827-.29898-.31718-.33745-.4005-.08337-.18005-.07707-.51596-.02064-.70694.03826-.12954.09607-.26516.17415-.40669.09652-.17484.28472-.44024.41497-.59169.04847-.0564.09845-.1107.14986-.1633.13967-.14279.39018-.35039.55655-.46095.04807-.0319.09652-.0623.14523-.0909.17208-.10126.47122-.2313.66506-.27906.01614-.004.03167-.008.04755-.0114.14597-.032.28244-.0369.3483-.0398zm6.0746.0713h.46458a.36182.36182 0 01.36174.36174v3.3517c0 .19984.0042.52475-.02381.72244-.03453.24453-.10647.46136-.21497.65008-.09938.1728-.32446.41352-.49144.52245-.16954.11054-.36163.18444-.57618.22273-.19648.0352-.52252.0334-.72091.0103-.01138 0-.02302 0-.0341-.004-.19804-.0257-.51263-.11398-.69247-.20053-.02328-.0111-.04593-.0235-.06974-.0356-.17716-.0922-.22503-.32412-.11988-.49403l.09766-.15815c.10514-.16994.20899-.29514.23201-.28059.16891.10568.33912.16087.35711.16537.19338.0483.4644.0439.58237.003.18616-.0644.37595-.3121.42945-.46199.06712-.18729.05736-.51797.05736-.71778v-3.2954a.36182.36182 0 01.36121-.36174zm-20.339.956c-.14722.00013-.34055.005-.48525.0424-.0486.0127-.0953.0283-.13954.0465-.18354.0757-.42206.3149-.49712.49866-.01984.0487-.03638.1003-.04961.15451-.04736.19363-.04829.52356-.0032.71779.05985.25702.19254.42775.39844.51213.18375.0754.43847.062.54258.062a.36182.36182 0 00.36174-.36171v-1.6717c-.03516 0-.07874-6e-5-.12764 0zm9.7327.0868h.2713a.36182.36182 0 01.36121.36224v.28165a.36182.36182 0 01-.36121.36174h-.2713a.36182.36182 0 01-.36174-.36174v-.28165a.36182.36182 0 01.36174-.36224zm-3.7228.0424h1.7224a.36182.36182 0 01.36121.36227v.40926a.36182.36182 0 01-.36121.36174h-1.7224a.36182.36182 0 01-.36121-.36174v-.40926a.36182.36182 0 01.36121-.36227zm-27.745 3.7791h.2713a.36182.36182 0 01.36174.36174v.28165a.36182.36182 0 01-.36174.36224h-.2713a.36182.36182 0 01-.36174-.36224v-.28165a.36182.36182 0 01.36174-.36174zm15.599 0h.27128a.36182.36182 0 01.36174.36174v.28165a.36182.36182 0 01-.36174.36224h-.27128a.36182.36182 0 01-.36124-.36224v-.28165a.36182.36182 0 01.36124-.36174zm-15.599 1.3622h.2713a.36182.36182 0 01.36174.36174v.28215a.36182.36182 0 01-.36174.36171h-.2713a.36182.36182 0 01-.36174-.36171v-.28215a.36182.36182 0 01.36174-.36174zm22.326 1.6433c.15761 0 .31538.0119.43307.0362.18642.0382.51636.16338.72036.29043.17534.10917.30178.41611.30178.6568v.67284c0 .24069-.13121.2895-.31832.13848-.18023-.14547-.52147-.33435-.75655-.3819-.13822-.028-.46125-.037-.67696.0651-.10086.0478-.1936.11454-.278.2-.16851.17058-.34234.5284-.41135.75862-.08398.28006-.13695.61169-.15917.99478-.01402.24021-.01376.631 0 .87124.0217.37899.07252.70808.15348.98753.06691.23085.23455.59169.4005.76483.07594.0792.15883.14224.24855.18863.21183.10924.55758.10358.71779.0625l.24908-.11989v-1.0139a.43579.43579 0 00-.43564-.43563.33727.33727 0 01-.19378-.43561v-.4186a.43579.43579 0 01.43564-.43511h.73639a.43579.43579 0 01.43511.43511v2.7177c0 .24069-.14176.57123-.34002.70744-.02514.0172-.05056.0337-.07596.0501-.20238.12973-.56414.28453-.79944.33332-.0029 0-.0064.003-.0093.003-.23545.0477-.63222.05-.86455-.0103-.35039-.0912-.65344-.29895-.91054-.62373-.14922-.18852-.33838-.53284-.42942-.75552-.22365-.54692-.3525-1.2138-.38656-2.0009-.01032-.24045-.01032-.63079 0-.87125.03437-.79629.16523-1.4672.39328-2.0128.09271-.22194.28556-.56428.43717-.75086.26662-.32798.5838-.53634.95189-.62527.11674-.0281.2744-.0424.43201-.0424zm-5.4529 0c.15759 0 .31491.0161.43045.0486.32721.0915.60976.29326.84749.60515.14579.19122.32644.54015.41238.76481.20796.54377.32784 1.2143.35917 2.0118.0098.24045.0095.63129 0 .87177-.03141.79484-.15134 1.4636-.35917 2.0066-.08599.22463-.26606.57309-.41185.76431-.23773.31191-.52028.5136-.84749.60512-.23106.0646-.63045.0646-.86146 0-.32639-.0917-.60878-.29329-.84698-.60512-.14594-.19106-.32689-.53968-.41288-.76431-.20783-.54308-.32777-1.2118-.35914-2.0066-.0098-.24048-.0098-.63079 0-.87124.03127-.79746.15116-1.4685.35914-2.0123.08594-.22463.26694-.57269.41288-.76377.2382-.31179.52059-.51401.84698-.60566.11552-.0322.27289-.0486.43048-.0486zm12.634 0c.15758-.003.31581.0109.43408.032.13629.0243.43513.10276.65836.19225.17275.0692.30747.33289.30747.57359v.7085c0 .24069-.1479.30644-.35139.17827-.15497-.0976-.47014-.24855-.70744-.28421-.09668-.0146-.39029-.038-.5979.0786-.07665.043-.2586.25924-.2899.49401-.01429.10638-.03762.40685.07649.616.01482.0272.16198.20222.37981.29816.04556.0198.26612.1035.49144.18812.01746.007.21868.0744.42325.2005.10933.0674.20667.14311.29247.22632.17211.16698.36015.51702.42479.7483.05014.17952.08509.38288.10388.61028.01984.2398.01905.63061.0032.87075-.02593.39743-.08911.73583-.18965 1.0139-.0817.22585-.29279.56467-.48162.7121-.13687.10689-.29543.18301-.4749.22839-.23275.0589-.62897.0537-.86455.006-.18576-.0373-.51655-.15481-.72916-.26718-.21037-.11123-.36793-.41926-.36793-.6599v-.75292c0-.24067.13645-.29549.32348-.1442.01799.0145.03524.0281.05323.0419.18981.14753.5347.34226.76843.39687.15473.0362.50506.0558.69866-.0806.06355-.0448.23474-.25696.26924-.49197.0164-.11117.03432-.40851-.05271-.63148-.02513-.0644-.17888-.27445-.39068-.38293-.08115-.0416-.32933-.14248-.54983-.23357-.47212-.26684-.55269-.33571-.62529-.41188-.1656-.17362-.34652-.52663-.41082-.75808-.04781-.17214-.08147-.36365-.10025-.57412-.0217-.23966-.02143-.63088-.0026-.87075.02667-.34007.08594-.63595.1783-.88831.08255-.22556.29141-.56555.47696-.71728.11702-.0957.24852-.16637.39378-.21188.11441-.036.2708-.0508.42839-.0537zm12.158 0c.15751 0 .31427.0182.42944.0517.12049.0351.39399.15875.58497.30438.12766.0973.22016.3846.22016.62529v.67334c0 .24069-.1166.27712-.29199.11266-.13936-.13068-.44217-.32674-.678-.3669-.09956-.0169-.39352-.0249-.59738.0971-.07755.0464-.14978.10769-.21704.18294-.15986.17885-.32171.54136-.38756.77255-.07964.27956-.13025.60492-.15195.97616-.01402.24021-.01429.63105 0 .87127.0217.36896.07197.69244.15142.97099.06596.23117.22823.59423.38809.77309.06728.0752.13949.13602.21704.18243.20386.12221.61952.11927.83976.0265.09305-.0392.33094-.18733.49969-.35812.13438-.1361.22791-.066.22791.17466v.67333c0 .24067-.13734.57777-.33798.71004-.13396.0883-.43291.22963-.67024.26458-.12414.0183-.42556.0233-.65783-.0372-.35041-.0912-.6545-.29898-.91157-.62373-.14922-.18854-.33838-.53234-.42944-.75498-.22365-.54695-.3525-1.2143-.38653-2.0014-.01032-.24042-.01032-.63084 0-.87127.03397-.78872.16306-1.456.38653-2.0014.09118-.22254.27974-.56655.42841-.75552.25731-.32703.56176-.53618.9126-.62786.11613-.0304.27395-.0445.43148-.0445zm-49.508.1261h.70538c.24066 0 .63413-.008.86868.0434.15163.0336.28657.0869.40513.15917.20421.12444.43921.45112.52144.67644.07594.2082.12602.45675.15036.74517.01931.23976.01984.63063-.0026.87024-.01164.12819-.02892.24916-.05167.36224-.04733.23564-.18836.60635-.33486.79634-.01058.0138-.02196.0268-.03307.0403-.15359.18383-.14573.37499-.01852.57515.03921.0618.15597.28903.23617.51572.01588.0448.03164.092.04752.14108.07406.22894.17211.60701.2336.83973l.33692 1.2769a.33561.33561 0 01-.32401.42116h-.22738a.56519.56519 0 01-.54621-.42167l-.26614-1.0113c-.0612-.23276-.15571-.61238-.23876-.8382-.07408-.2014-.30805-.53867-.54001-.5519-.01879-.003-.16478 0-.32607 0v2.3874a.43579.43579 0 01-.43614.43564h-.15968a.43579.43579 0 01-.43564-.43564v-6.5924a.43579.43579 0 01.43564-.43511zm5.8523 0h.35811a.53081.53081 0 01.52091.42685l1.3121 6.6089a.35778.35778 0 01-.35142.42735h-.16484a.52393.52393 0 01-.51522-.42892l-.09353-.50228a.52393.52393 0 00-.51469-.42841h-.74155a.52494.52494 0 00-.51626.42788l-.09353.50334a.52494.52494 0 01-.51626.42839h-.16536a.35778.35778 0 01-.35089-.42735l1.3116-6.6089a.53081.53081 0 01.52088-.42685zm3.8649 0h.1597a.43579.43579 0 01.43561.43511v6.5924a.43579.43579 0 01-.43561.43564h-.1597a.43579.43579 0 01-.43614-.43564v-6.5924a.43579.43579 0 01.43614-.43511zm2.6639 0h.1602a.43579.43579 0 01.43564.43511v5.1372a.43579.43579 0 00.43561.43616h.94001a.43579.43579 0 01.43564.43614v.5829a.43579.43579 0 01-.43564.43564h-1.9715a.43579.43579 0 01-.43564-.43564v-6.5924a.43579.43579 0 01.43564-.43511zm7.0192 0h.16018a.43579.43579 0 01.43564.43511v5.1372a.43579.43579 0 00.43564.43616h.93998a.43579.43579 0 01.43564.43614v.5829a.43579.43579 0 01-.43564.43564h-1.9714a.43579.43579 0 01-.43564-.43564v-6.5924a.43579.43579 0 01.43564-.43511zm14.338 0h.15968a.43579.43579 0 01.43564.43511v6.5924a.43579.43579 0 01-.43564.43564h-.15968a.43579.43579 0 01-.43614-.43564v-6.5924a.43579.43579 0 01.43614-.43511zm6.7619 0h2.8148a.43579.43579 0 01.43564.43511v.58343a.43579.43579 0 01-.43564.43563h-.45424a.43579.43579 0 00-.43614.43614v5.1372a.43579.43579 0 01-.43564.43564h-.1602a.43579.43579 0 01-.43561-.43564v-5.1372a.43579.43579 0 00-.43617-.43614h-.4568a.43579.43579 0 01-.43617-.43563v-.58343a.43579.43579 0 01.43617-.43511zm4.8421 0h.1597a.43579.43579 0 01.43614.43511v6.5924a.43579.43579 0 01-.43614.43564h-.1597a.43579.43579 0 01-.43561-.43564v-6.5924a.43579.43579 0 01.43561-.43511zm-20.627 1.2945c-.15507 0-.30996.0383-.4005.11419v-.003c-.04191.0349-.08149.0761-.11938.12351-.14968.18737-.28482.56102-.33898.79531-.06429.2781-.10501.60401-.12248.97771-.01111.2404-.01111.6309 0 .87127.01746.37145.05834.69599.12248.97306.05424.23426.18926.60796.33898.79531.03789.0474.07747.0891.11938.12401.18103.15124.62024.1514.802.003.04265-.0352.083-.0771.12144-.12507.14994-.18717.2848-.56105.33901-.79528.06413-.2771.10501-.60169.12248-.97309.01111-.24043.01111-.63032 0-.87074-.01746-.37373-.05818-.70012-.12248-.97825-.05416-.23423-.18907-.60811-.33901-.79528-.03844-.048-.07879-.0894-.12144-.12454-.09086-.075-.24646-.11213-.4015-.11213zm-24.119.0997v1.479a.43492.43492 0 00.4341.43563l.39944-.14261c.04046-.041.15999-.25902.18862-.49609.02143-.17886.02762-.52361-.01746-.75964-.03278-.17082-.23858-.48181-.46921-.51007-.05564-.006-.29567-.006-.53538-.006zm5.4012.72657a.080415.080415 0 00-.04342.0574l-.39066 2.112a.36257.36257 0 00.35655.42842h.22429a.36289.36289 0 00.35655-.42842l-.38859-2.112a.080415.080415 0 00-.11472-.0574zm10.297 1.6681h.81132a.43579.43579 0 01.43564.43564v.5829a.43579.43579 0 01-.43564.43614h-.81132a.43579.43579 0 01-.43564-.43614v-.5829a.43579.43579 0 01.43564-.43564zm-1.8133 6.8208h.42995l-.07956.54415h-.42995zm1.3296 0h.43048l-.53176 3.6365h-.43045zm1.3302 0h.42995l-.07959.54415h-.42995zm4.2628 0h.42995l-.53176 3.6365h-.42995zm6.8724.0837c.16359 0 .32853.0148.49403.0445.1655.0296.33229.0741.50125.13332l-.06718.46043c-.16663-.0857-.32626-.14957-.47903-.19172-.15274-.0419-.30313-.063-.45114-.063-.2571 0-.4627.0501-.61754.14986-.15322.0997-.24344.24096-.27027.42479-.02249.15425.0066.27141.08681.35089.08213.0779.24866.14084.50025.18913l.27646.0584c.34234.067.58415.18574.72604.35555.14343.16824.19494.39391.15348.67746-.04945.33811-.20071.59497-.45371.76946-.25143.1745-.59574.26149-1.0335.26149-.16515 0-.3389-.019-.52038-.0563-.17992-.0374-.36422-.0927-.55293-.16589l.07131-.48575c.17592.10753.35171.18833.52761.24289.17587.0547.35256.0817.5302.0817.2695 0 .48554-.0532.64752-.15918.16195-.10596.25704-.25688.28578-.4532.02513-.17137-.0085-.30541-.10025-.40204-.09028-.0966-.25186-.16875-.48474-.21703l-.27903-.0563c-.34187-.0701-.58076-.18013-.71625-.3297-.13539-.14957-.18365-.35729-.14467-.62373.04514-.3085.18891-.55155.43148-.72916.2441-.17765.55671-.26665.93845-.26665zm-16.203.0631h2.0051l-.05789.39738h-1.5332l-.15039 1.0284h1.3839l-.05839.39741h-1.3834l-.24392 1.6666h-.4718zm18.162 0h.63561l1.1204 2.9197.42685-2.9197h.45836l-.51107 3.4897h-.63564l-1.1198-2.9192-.42736 2.9192h-.45786zm3.0964 0h2.9518l-.05789.39738h-1.2387l-.45217 3.0923h-.4749l.45215-3.0923h-1.2381zm3.4075 0h2.005l-.05786.39738h-1.5332l-.15039 1.0284h1.3834l-.05786.39741h-1.3839l-.24339 1.6666h-.47233zm-17.49.80872c.37862 0 .64685.0983.80513.29456.15809.19633.2082.49358.14986.89244l-.2186 1.494h-.42995l.05789-.39737c-.12142.1589-.26046.27662-.41807.35295-.1574.0747-.34205.11213-.55398.11213-.26797 0-.47064-.0747-.6077-.22429-.13523-.15113-.1842-.35322-.14729-.60563.04308-.29445.17354-.51654.39172-.66611.21976-.1496.52517-.22429.91623-.22429h.60306l.0061-.0419c.02894-.19791-.01402-.35089-.1292-.45836-.11337-.10904-.28771-.1633-.52295-.1633-.1496 0-.29792.0175-.44495.0532-.14703.0358-.29117.0901-.43251.16174l.05786-.39738c.16624-.0608.32565-.10583.478-.13541.15258-.0313.29903-.047.43926-.047zm4.4406 0c.35213 0 .61357.11409.78444.34158.17354.2259.23064.53345.17365.92295l-.03101.21031h-1.9771c-.02461.29605.0313.52221.16743.678.13793.15422.34893.23101.63407.23101.16515 0 .32819-.0201.48834-.0605.16177-.0405.32483-.10142.48937-.18243l-.05943.40669c-.16378.0654-.32901.11507-.49609.14936-.167.0343-.33404.0517-.50075.0517-.41757 0-.73094-.12179-.94001-.36483-.20764-.24305-.28075-.57156-.22013-.986.06268-.42849.22778-.76819.49506-1.019.26906-.25241.59957-.37881.99219-.37881zm-9.3576.0636h.42995l-.3829 2.6174h-.42995zm2.6598 0h.42942l-.38293 2.6174h-.42942zm6.6492.30128c-.23992 0-.44244.0675-.60719.20307-.16317.13557-.27345.32641-.33126.57258l1.5333-.003c.03127-.23529-.0074-.42304-.11628-.56327-.10726-.14017-.26665-.21031-.47852-.21031zm-4.3201 1.0005c-.34748 0-.59388.0394-.73948.11885-.14563.0795-.23302.21505-.26098.40669-.02222.15269.0095.27392.09612.3643.08829.0888.21926.13335.39222.13335.23839 0 .4413-.0839.60928-.2522.16976-.16981.27525-.39494.31626-.6754l.01402-.0956z" style="fill:#4456c6"/>
 </g>
</svg>
